<svg width="30" height="30" viewBox="0 0 30 30" fill="none" xmlns="http://www.w3.org/2000/svg">
<g filter="url(#filter0_dd_185_1704)">
<path d="M23.8401 4.61183C23.3294 4.10083 22.7229 3.69547 22.0555 3.41891C21.388 3.14235 20.6726 3 19.9501 3C19.2276 3 18.5122 3.14235 17.8448 3.41891C17.1773 3.69547 16.5709 4.10083 16.0601 4.61183L15.0001 5.67183L13.9401 4.61183C12.9084 3.58013 11.5092 3.00053 10.0501 3.00053C8.59109 3.00053 7.19181 3.58013 6.16012 4.61183C5.12843 5.64352 4.54883 7.04279 4.54883 8.50183C4.54883 9.96086 5.12843 11.3601 6.16012 12.3918L7.22012 13.4518L15.0001 21.2318L22.7801 13.4518L23.8401 12.3918C24.3511 11.8811 24.7565 11.2746 25.033 10.6072C25.3096 9.93972 25.4519 9.22431 25.4519 8.50183C25.4519 7.77934 25.3096 7.06393 25.033 6.39647C24.7565 5.72901 24.3511 5.12258 23.8401 4.61183Z" fill="#0A0A0B"/>
</g>
<defs>
<filter id="filter0_dd_185_1704" x="-1" y="0" width="32" height="32" filterUnits="userSpaceOnUse" color-interpolation-filters="sRGB">
<feFlood flood-opacity="0" result="BackgroundImageFix"/>
<feColorMatrix in="SourceAlpha" type="matrix" values="0 0 0 0 0 0 0 0 0 0 0 0 0 0 0 0 0 0 127 0" result="hardAlpha"/>
<feOffset dy="4"/>
<feGaussianBlur stdDeviation="2"/>
<feComposite in2="hardAlpha" operator="out"/>
<feColorMatrix type="matrix" values="0 0 0 0 0 0 0 0 0 0 0 0 0 0 0 0 0 0 0.25 0"/>
<feBlend mode="normal" in2="BackgroundImageFix" result="effect1_dropShadow_185_1704"/>
<feColorMatrix in="SourceAlpha" type="matrix" values="0 0 0 0 0 0 0 0 0 0 0 0 0 0 0 0 0 0 127 0" result="hardAlpha"/>
<feOffset dy="4"/>
<feGaussianBlur stdDeviation="2"/>
<feComposite in2="hardAlpha" operator="out"/>
<feColorMatrix type="matrix" values="0 0 0 0 0 0 0 0 0 0 0 0 0 0 0 0 0 0 0.25 0"/>
<feBlend mode="normal" in2="effect1_dropShadow_185_1704" result="effect2_dropShadow_185_1704"/>
<feBlend mode="normal" in="SourceGraphic" in2="effect2_dropShadow_185_1704" result="shape"/>
</filter>
</defs>
</svg>
